<svg width="449" height="100" viewBox="0 0 449 100" fill="none" xmlns="http://www.w3.org/2000/svg">
<g clip-path="url(#clip0_94_4)">
<path d="M251.817 47.0303C251.505 48.4463 250.899 49.5303 250.001 50.2822C249.103 51.0342 247.936 51.4102 246.5 51.4102C245.514 51.4102 244.635 51.2393 243.863 50.8975C243.092 50.5459 242.438 50.0723 241.9 49.4766C241.363 48.8809 240.953 48.1875 240.67 47.3965C240.387 46.5957 240.245 45.7461 240.245 44.8477C240.245 43.9297 240.392 43.0605 240.685 42.2402C240.978 41.4199 241.393 40.707 241.93 40.1016C242.477 39.4961 243.126 39.0176 243.878 38.666C244.64 38.3047 245.489 38.124 246.427 38.124C247.286 38.124 248.058 38.2754 248.741 38.5781C249.425 38.8809 250.006 39.3057 250.484 39.8525C250.963 40.3896 251.329 41.0342 251.583 41.7861C251.847 42.5381 251.988 43.3633 252.008 44.2617H243.175C243.165 44.4277 243.16 44.54 243.16 44.5986C243.16 44.6475 243.16 44.6768 243.16 44.6865C243.16 45.8389 243.243 46.7764 243.409 47.499C243.585 48.2217 243.824 48.7881 244.127 49.1982C244.439 49.5986 244.806 49.8721 245.226 50.0186C245.655 50.165 246.129 50.2383 246.646 50.2383C247.125 50.2383 247.574 50.1748 247.994 50.0479C248.424 49.9209 248.81 49.7207 249.151 49.4473C249.493 49.1641 249.791 48.8027 250.045 48.3633C250.309 47.9141 250.519 47.377 250.675 46.752C250.87 46.7715 251.065 46.8057 251.261 46.8545C251.456 46.9033 251.642 46.9619 251.817 47.0303ZM249.049 43.1191C249.02 42.3086 248.932 41.6543 248.785 41.1562C248.648 40.6484 248.463 40.2529 248.229 39.9697C247.994 39.6865 247.716 39.4961 247.394 39.3984C247.081 39.291 246.734 39.2373 246.354 39.2373C245.953 39.2373 245.577 39.2959 245.226 39.4131C244.884 39.5303 244.576 39.7354 244.303 40.0283C244.029 40.3213 243.8 40.7168 243.614 41.2148C243.438 41.7129 243.316 42.3477 243.248 43.1191H249.049ZM260.313 51.2051L255.143 39.6914H252.96V38.5195H260.079V39.6914H258.028L261.661 47.8213H261.72L265.338 39.6914H263.287V38.5195H268.707V39.6914H266.568L261.485 51.2051H260.313ZM280.792 47.0303C280.479 48.4463 279.874 49.5303 278.976 50.2822C278.077 51.0342 276.91 51.4102 275.475 51.4102C274.488 51.4102 273.609 51.2393 272.838 50.8975C272.066 50.5459 271.412 50.0723 270.875 49.4766C270.338 48.8809 269.928 48.1875 269.645 47.3965C269.361 46.5957 269.22 45.7461 269.22 44.8477C269.22 43.9297 269.366 43.0605 269.659 42.2402C269.952 41.4199 270.367 40.707 270.904 40.1016C271.451 39.4961 272.101 39.0176 272.853 38.666C273.614 38.3047 274.464 38.124 275.401 38.124C276.261 38.124 277.032 38.2754 277.716 38.5781C278.399 38.8809 278.98 39.3057 279.459 39.8525C279.938 40.3896 280.304 41.0342 280.558 41.7861C280.821 42.5381 280.963 43.3633 280.982 44.2617H272.149C272.14 44.4277 272.135 44.54 272.135 44.5986C272.135 44.6475 272.135 44.6768 272.135 44.6865C272.135 45.8389 272.218 46.7764 272.384 47.499C272.56 48.2217 272.799 48.7881 273.102 49.1982C273.414 49.5986 273.78 49.8721 274.2 50.0186C274.63 50.165 275.104 50.2383 275.621 50.2383C276.1 50.2383 276.549 50.1748 276.969 50.0479C277.398 49.9209 277.784 49.7207 278.126 49.4473C278.468 49.1641 278.766 48.8027 279.02 48.3633C279.283 47.9141 279.493 47.377 279.649 46.752C279.845 46.7715 280.04 46.8057 280.235 46.8545C280.431 46.9033 280.616 46.9619 280.792 47.0303ZM278.023 43.1191C277.994 42.3086 277.906 41.6543 277.76 41.1562C277.623 40.6484 277.438 40.2529 277.203 39.9697C276.969 39.6865 276.69 39.4961 276.368 39.3984C276.056 39.291 275.709 39.2373 275.328 39.2373C274.928 39.2373 274.552 39.2959 274.2 39.4131C273.858 39.5303 273.551 39.7354 273.277 40.0283C273.004 40.3213 272.774 40.7168 272.589 41.2148C272.413 41.7129 272.291 42.3477 272.223 43.1191H278.023ZM290.431 51H283.253V49.8281H285.45V39.6914H283.253V38.5195H288.087V40.79H288.146C288.321 40.4092 288.536 40.0625 288.79 39.75C289.054 39.4277 289.342 39.1494 289.654 38.915C289.967 38.6807 290.299 38.5 290.65 38.373C291.002 38.2461 291.358 38.1826 291.72 38.1826C292.306 38.1826 292.789 38.3535 293.17 38.6953C293.551 39.0371 293.741 39.5107 293.741 40.1162C293.741 40.6533 293.595 41.0732 293.302 41.376C293.009 41.6689 292.628 41.8154 292.159 41.8154C291.671 41.8154 291.295 41.6738 291.031 41.3906C290.777 41.1074 290.65 40.751 290.65 40.3213C290.65 40.0967 290.694 39.8525 290.782 39.5889C290.401 39.7256 290.045 39.9453 289.713 40.248C289.391 40.541 289.107 40.9121 288.863 41.3613C288.619 41.8105 288.429 42.333 288.292 42.9287C288.155 43.5146 288.087 44.1689 288.087 44.8916V49.8281H290.431V51ZM305.797 39.6914H303.746V38.5195H309.225V39.6914H307.057L301.402 52.4941C300.816 53.832 300.299 54.9355 299.85 55.8047C299.41 56.6836 299 57.377 298.619 57.8848C298.238 58.4023 297.867 58.7637 297.506 58.9688C297.145 59.1738 296.754 59.2764 296.334 59.2764C296.002 59.2764 295.704 59.2227 295.44 59.1152C295.187 59.0176 294.967 58.8809 294.781 58.7051C294.605 58.5391 294.469 58.3438 294.371 58.1191C294.283 57.8945 294.239 57.665 294.239 57.4307C294.239 57.2256 294.273 57.0254 294.342 56.8301C294.41 56.6348 294.513 56.459 294.649 56.3027C294.786 56.1562 294.947 56.0342 295.133 55.9365C295.328 55.8486 295.553 55.8047 295.807 55.8047C296.041 55.8047 296.251 55.8438 296.437 55.9219C296.622 56.0098 296.773 56.1221 296.891 56.2588C297.018 56.4053 297.11 56.5664 297.169 56.7422C297.237 56.9277 297.271 57.1182 297.271 57.3135C297.271 57.4404 297.262 57.543 297.242 57.6211L297.301 57.6357C297.682 57.2939 298.146 56.5615 298.692 55.4385C299.249 54.3252 299.923 52.875 300.714 51.0879L295.602 39.6914H293.39V38.5195H300.538V39.6914H298.487L302.12 47.8213H302.179L305.797 39.6914ZM323.844 51.2051L320.24 42.3281L316.607 51.2051H315.377L310.602 39.6914H308.419V38.5195H315.567V39.6914H313.473L316.754 47.8213H316.812L320.562 38.4463H321.456L325.221 47.8213H325.279L328.502 39.6914H326.451V38.5195H331.915V39.6914H329.776L325.089 51.2051H323.844ZM337.203 49.8281H339.181V51H332.369V49.8281H334.566V30.8877H332.369V29.7158H337.203V40.4824H337.262C337.672 39.7305 338.209 39.1494 338.873 38.7393C339.547 38.3291 340.411 38.124 341.466 38.124C342.823 38.124 343.824 38.4707 344.469 39.1641C345.123 39.8477 345.45 40.8291 345.45 42.1084V49.8281H347.574V51H340.836V49.8281H342.813V41.7715C342.813 40.9512 342.633 40.3604 342.271 39.999C341.91 39.6279 341.393 39.4424 340.719 39.4424C340.23 39.4424 339.771 39.54 339.342 39.7354C338.922 39.9307 338.551 40.2334 338.229 40.6436C337.916 41.0537 337.667 41.5811 337.481 42.2256C337.296 42.8701 337.203 43.6465 337.203 44.5547V49.8281ZM361.065 47.0303C360.753 48.4463 360.147 49.5303 359.249 50.2822C358.351 51.0342 357.184 51.4102 355.748 51.4102C354.762 51.4102 353.883 51.2393 353.111 50.8975C352.34 50.5459 351.686 50.0723 351.148 49.4766C350.611 48.8809 350.201 48.1875 349.918 47.3965C349.635 46.5957 349.493 45.7461 349.493 44.8477C349.493 43.9297 349.64 43.0605 349.933 42.2402C350.226 41.4199 350.641 40.707 351.178 40.1016C351.725 39.4961 352.374 39.0176 353.126 38.666C353.888 38.3047 354.737 38.124 355.675 38.124C356.534 38.124 357.306 38.2754 357.989 38.5781C358.673 38.8809 359.254 39.3057 359.732 39.8525C360.211 40.3896 360.577 41.0342 360.831 41.7861C361.095 42.5381 361.236 43.3633 361.256 44.2617H352.423C352.413 44.4277 352.408 44.54 352.408 44.5986C352.408 44.6475 352.408 44.6768 352.408 44.6865C352.408 45.8389 352.491 46.7764 352.657 47.499C352.833 48.2217 353.072 48.7881 353.375 49.1982C353.688 49.5986 354.054 49.8721 354.474 50.0186C354.903 50.165 355.377 50.2383 355.895 50.2383C356.373 50.2383 356.822 50.1748 357.242 50.0479C357.672 49.9209 358.058 49.7207 358.399 49.4473C358.741 49.1641 359.039 48.8027 359.293 48.3633C359.557 47.9141 359.767 47.377 359.923 46.752C360.118 46.7715 360.313 46.8057 360.509 46.8545C360.704 46.9033 360.89 46.9619 361.065 47.0303ZM358.297 43.1191C358.268 42.3086 358.18 41.6543 358.033 41.1562C357.896 40.6484 357.711 40.2529 357.477 39.9697C357.242 39.6865 356.964 39.4961 356.642 39.3984C356.329 39.291 355.982 39.2373 355.602 39.2373C355.201 39.2373 354.825 39.2959 354.474 39.4131C354.132 39.5303 353.824 39.7354 353.551 40.0283C353.277 40.3213 353.048 40.7168 352.862 41.2148C352.687 41.7129 352.564 42.3477 352.496 43.1191H358.297ZM370.704 51H363.526V49.8281H365.724V39.6914H363.526V38.5195H368.36V40.79H368.419C368.595 40.4092 368.81 40.0625 369.063 39.75C369.327 39.4277 369.615 39.1494 369.928 38.915C370.24 38.6807 370.572 38.5 370.924 38.373C371.275 38.2461 371.632 38.1826 371.993 38.1826C372.579 38.1826 373.062 38.3535 373.443 38.6953C373.824 39.0371 374.015 39.5107 374.015 40.1162C374.015 40.6533 373.868 41.0732 373.575 41.376C373.282 41.6689 372.901 41.8154 372.433 41.8154C371.944 41.8154 371.568 41.6738 371.305 41.3906C371.051 41.1074 370.924 40.751 370.924 40.3213C370.924 40.0967 370.968 39.8525 371.056 39.5889C370.675 39.7256 370.318 39.9453 369.986 40.248C369.664 40.541 369.381 40.9121 369.137 41.3613C368.893 41.8105 368.702 42.333 368.565 42.9287C368.429 43.5146 368.36 44.1689 368.36 44.8916V49.8281H370.704V51ZM386.905 47.0303C386.593 48.4463 385.987 49.5303 385.089 50.2822C384.19 51.0342 383.023 51.4102 381.588 51.4102C380.602 51.4102 379.723 51.2393 378.951 50.8975C378.18 50.5459 377.525 50.0723 376.988 49.4766C376.451 48.8809 376.041 48.1875 375.758 47.3965C375.475 46.5957 375.333 45.7461 375.333 44.8477C375.333 43.9297 375.479 43.0605 375.772 42.2402C376.065 41.4199 376.48 40.707 377.018 40.1016C377.564 39.4961 378.214 39.0176 378.966 38.666C379.728 38.3047 380.577 38.124 381.515 38.124C382.374 38.124 383.146 38.2754 383.829 38.5781C384.513 38.8809 385.094 39.3057 385.572 39.8525C386.051 40.3896 386.417 41.0342 386.671 41.7861C386.935 42.5381 387.076 43.3633 387.096 44.2617H378.263C378.253 44.4277 378.248 44.54 378.248 44.5986C378.248 44.6475 378.248 44.6768 378.248 44.6865C378.248 45.8389 378.331 46.7764 378.497 47.499C378.673 48.2217 378.912 48.7881 379.215 49.1982C379.527 49.5986 379.894 49.8721 380.313 50.0186C380.743 50.165 381.217 50.2383 381.734 50.2383C382.213 50.2383 382.662 50.1748 383.082 50.0479C383.512 49.9209 383.897 49.7207 384.239 49.4473C384.581 49.1641 384.879 48.8027 385.133 48.3633C385.396 47.9141 385.606 47.377 385.763 46.752C385.958 46.7715 386.153 46.8057 386.349 46.8545C386.544 46.9033 386.729 46.9619 386.905 47.0303ZM384.137 43.1191C384.107 42.3086 384.02 41.6543 383.873 41.1562C383.736 40.6484 383.551 40.2529 383.316 39.9697C383.082 39.6865 382.804 39.4961 382.481 39.3984C382.169 39.291 381.822 39.2373 381.441 39.2373C381.041 39.2373 380.665 39.2959 380.313 39.4131C379.972 39.5303 379.664 39.7354 379.391 40.0283C379.117 40.3213 378.888 40.7168 378.702 41.2148C378.526 41.7129 378.404 42.3477 378.336 43.1191H384.137Z" fill="#044452"/>
<path d="M61.1538 25.3608C63.3999 25.6978 65.3091 26.2256 66.8813 26.9443C68.4761 27.6406 69.7676 28.5054 70.7559 29.5386C71.7666 30.5718 72.4966 31.7397 72.9458 33.0425C73.395 34.3452 73.6196 35.749 73.6196 37.2539C73.6196 39.0059 73.3052 40.7129 72.6763 42.375C72.0474 44.0146 70.9805 45.4746 69.4756 46.7549C67.9707 48.0352 65.9829 49.0684 63.5122 49.8545C61.0415 50.6182 57.9531 51 54.2471 51H33.1899V48.3047H39.9282V4.7417H33.1899V2.04639H53.4048C56.8188 2.04639 59.7051 2.33838 62.0635 2.92236C64.4219 3.50635 66.3311 4.31494 67.791 5.34814C69.251 6.38135 70.2954 7.59424 70.9243 8.98682C71.5757 10.3794 71.9014 11.8843 71.9014 13.5015C71.9014 14.8042 71.6992 16.062 71.2949 17.2749C70.8906 18.4653 70.2505 19.5771 69.3745 20.6104C68.521 21.6436 67.4092 22.5532 66.0391 23.3394C64.6914 24.1255 63.063 24.7544 61.1538 25.2261V25.3608ZM46.498 48.3047H53.708C56.0664 48.3047 58.043 48.125 59.6377 47.7656C61.2549 47.3838 62.5464 46.7661 63.5122 45.9126C64.5005 45.0591 65.208 43.9473 65.6348 42.5771C66.0615 41.1846 66.2749 39.4663 66.2749 37.4224C66.2749 35.5806 66.0728 34.0083 65.6685 32.7056C65.2866 31.3804 64.5566 30.291 63.4785 29.4375C62.4229 28.584 60.9517 27.9551 59.0649 27.5508C57.2007 27.1465 54.7749 26.9443 51.7876 26.9443H46.498V48.3047ZM46.498 24.249H50.4736C53.1465 24.249 55.3926 24.0806 57.2119 23.7437C59.0312 23.4067 60.4912 22.834 61.5918 22.0254C62.6924 21.2168 63.4785 20.1499 63.9502 18.8247C64.4219 17.4771 64.6577 15.8037 64.6577 13.8047C64.6577 12.2773 64.5005 10.9521 64.186 9.8291C63.8716 8.68359 63.2876 7.74023 62.4341 6.99902C61.5806 6.23535 60.3901 5.67383 58.8628 5.31445C57.3579 4.93262 55.3926 4.7417 52.9668 4.7417H46.498V24.249ZM92.0825 48.3047V51H75.6748V48.3047H82.0762L99.5957 1.54102H102.257L118.699 48.3047H125.37V51H104.649V48.3047H111.657L106.604 33.9185H90.7012L85.3442 48.3047H92.0825ZM98.8545 12.1875L91.7456 31.1895H105.66L98.9893 12.1875H98.8545ZM168.36 51.5054H165.665L136.521 6.3252L136.353 6.35889V48.3047H142.417V51H126.583V48.3047H133.321V4.7417H126.583V2.04639H141.643L165.159 38.5005L165.328 38.4668V4.7417H158.589V2.04639H175.098V4.7417H168.36V51.5054ZM193.46 25.7314L214.079 4.7417H208.992V2.04639H224.86V4.7417H218.021L199.423 23.4404L221.39 48.3047H226.646V51H208.048V48.3047H213.102L193.46 25.7314ZM192.112 48.3047H198.514V51H178.804V48.3047H185.542V4.7417H178.804V2.04639H198.514V4.7417H192.112V48.3047Z" fill="#044452"/>
</g>
<defs>
<clipPath id="clip0_94_4">
<rect width="449" height="100" fill="white"/>
</clipPath>
</defs>
</svg>
